<mxfile host="65bd71144e">
    <diagram id="LFO49uZyh6Ri22hmWbK3" name="Architecture">
        <mxGraphModel dx="1116" dy="964" grid="1" gridSize="10" guides="1" tooltips="1" connect="1" arrows="1" fold="1" page="1" pageScale="1" pageWidth="827" pageHeight="1169" math="0" shadow="0">
            <root>
                <mxCell id="0"/>
                <mxCell id="1" parent="0"/>
                <mxCell id="5" value="" style="rounded=1;arcSize=10;dashed=0;fillColor=none;gradientColor=none;strokeWidth=2;strokeColor=#808080;" parent="1" vertex="1">
                    <mxGeometry x="230" y="80" width="1000" height="650" as="geometry"/>
                </mxCell>
                <mxCell id="7" value="&#10;&#10;&#10;&#10;&#10;&#10;&#10;&#10;&#10;&#10;&#10;&#10;&#10;&#10;&#10;&#10;&#10;&#10;&#10;&#10;&#10;&#10;&#10;&#10;&#10;&#10;&#10;&#10;&#10;&#10;&#10;&#10;&#10;&#10;&#10;&#10;Virtual Private Cloud&#10;10.0.0.0/16" style="rounded=1;arcSize=10;dashed=0;fillColor=none;gradientColor=none;strokeWidth=2;strokeColor=#808080;" parent="1" vertex="1">
                    <mxGeometry x="280" y="130" width="900" height="560" as="geometry"/>
                </mxCell>
                <mxCell id="2" value="Users" style="sketch=0;outlineConnect=0;fontColor=#232F3E;gradientColor=none;fillColor=#232F3D;strokeColor=none;dashed=0;verticalLabelPosition=bottom;verticalAlign=top;align=center;html=1;fontSize=12;fontStyle=0;aspect=fixed;pointerEvents=1;shape=mxgraph.aws4.users;" parent="1" vertex="1">
                    <mxGeometry x="100" y="357" width="78" height="78" as="geometry"/>
                </mxCell>
                <mxCell id="3" value="" style="sketch=0;points=[[0,0,0],[0.25,0,0],[0.5,0,0],[0.75,0,0],[1,0,0],[0,1,0],[0.25,1,0],[0.5,1,0],[0.75,1,0],[1,1,0],[0,0.25,0],[0,0.5,0],[0,0.75,0],[1,0.25,0],[1,0.5,0],[1,0.75,0]];outlineConnect=0;fontColor=#232F3E;gradientColor=#F78E04;gradientDirection=north;fillColor=#D05C17;strokeColor=#ffffff;dashed=0;verticalLabelPosition=bottom;verticalAlign=top;align=center;html=1;fontSize=12;fontStyle=0;aspect=fixed;shape=mxgraph.aws4.resourceIcon;resIcon=mxgraph.aws4.eks;" parent="1" vertex="1">
                    <mxGeometry x="80" y="530" width="78" height="78" as="geometry"/>
                </mxCell>
                <mxCell id="6" value="" style="dashed=0;html=1;shape=mxgraph.aws3.cloud;fillColor=#F58536;gradientColor=none;dashed=0;" parent="1" vertex="1">
                    <mxGeometry x="250" y="60" width="52" height="36" as="geometry"/>
                </mxCell>
                <mxCell id="8" value="" style="dashed=0;html=1;shape=mxgraph.aws3.virtual_private_cloud;fillColor=#F58536;gradientColor=none;dashed=0;" parent="1" vertex="1">
                    <mxGeometry x="280" y="110" width="52" height="36" as="geometry"/>
                </mxCell>
                <mxCell id="12" value="Internet &lt;br&gt;Gateway" style="outlineConnect=0;dashed=0;verticalLabelPosition=bottom;verticalAlign=top;align=center;html=1;shape=mxgraph.aws3.internet_gateway;fillColor=#F58534;gradientColor=none;labelBackgroundColor=default;" parent="1" vertex="1">
                    <mxGeometry x="250" y="360" width="69" height="72" as="geometry"/>
                </mxCell>
                <mxCell id="16" value="&#10;&#10;&#10;&#10;&#10;&#10;&#10;&#10;&#10;&#10;&#10;Public Subnet 1&#10;10.0.1.0/24" style="rounded=1;arcSize=10;dashed=0;fillColor=none;gradientColor=none;strokeWidth=2;" vertex="1" parent="1">
                    <mxGeometry x="380" y="180" width="200" height="200" as="geometry"/>
                </mxCell>
                <mxCell id="17" value="" style="dashed=0;html=1;shape=mxgraph.aws3.permissions;fillColor=#D9A741;gradientColor=none;dashed=0;" vertex="1" parent="1">
                    <mxGeometry x="400" y="160" width="30" height="35" as="geometry"/>
                </mxCell>
                <mxCell id="19" value="&#10;&#10;&#10;&#10;&#10;&#10;&#10;&#10;&#10;&#10;&#10;Public Subnet 2&#10;10.0.2.0/24" style="rounded=1;arcSize=10;dashed=0;fillColor=none;gradientColor=none;strokeWidth=2;" vertex="1" parent="1">
                    <mxGeometry x="380" y="438" width="200" height="200" as="geometry"/>
                </mxCell>
                <mxCell id="20" value="" style="dashed=0;html=1;shape=mxgraph.aws3.permissions;fillColor=#D9A741;gradientColor=none;dashed=0;" vertex="1" parent="1">
                    <mxGeometry x="400" y="418" width="30" height="35" as="geometry"/>
                </mxCell>
                <mxCell id="21" value="&#10;&#10;&#10;&#10;&#10;&#10;&#10;&#10;&#10;&#10;&#10;Private Subnet 1&#10;10.0.3.0/24" style="rounded=1;arcSize=10;dashed=0;fillColor=none;gradientColor=none;strokeWidth=2;" vertex="1" parent="1">
                    <mxGeometry x="670" y="180" width="410" height="200" as="geometry"/>
                </mxCell>
                <mxCell id="22" value="" style="dashed=0;html=1;shape=mxgraph.aws3.permissions;fillColor=#D9A741;gradientColor=none;dashed=0;" vertex="1" parent="1">
                    <mxGeometry x="690" y="160" width="30" height="35" as="geometry"/>
                </mxCell>
                <mxCell id="23" value="&#10;&#10;&#10;&#10;&#10;&#10;&#10;&#10;&#10;&#10;&#10;Private Subnet 2&#10;10.0.4.0/24" style="rounded=1;arcSize=10;dashed=0;fillColor=none;gradientColor=none;strokeWidth=2;" vertex="1" parent="1">
                    <mxGeometry x="670" y="438" width="410" height="200" as="geometry"/>
                </mxCell>
                <mxCell id="24" value="" style="dashed=0;html=1;shape=mxgraph.aws3.permissions;fillColor=#D9A741;gradientColor=none;dashed=0;" vertex="1" parent="1">
                    <mxGeometry x="690" y="418" width="30" height="35" as="geometry"/>
                </mxCell>
                <mxCell id="25" value="" style="outlineConnect=0;dashed=0;verticalLabelPosition=bottom;verticalAlign=top;align=center;html=1;shape=mxgraph.aws3.vpc_nat_gateway;fillColor=#F58536;gradientColor=none;" vertex="1" parent="1">
                    <mxGeometry x="445.5" y="230" width="69" height="72" as="geometry"/>
                </mxCell>
                <mxCell id="26" value="" style="outlineConnect=0;dashed=0;verticalLabelPosition=bottom;verticalAlign=top;align=center;html=1;shape=mxgraph.aws3.vpc_nat_gateway;fillColor=#F58536;gradientColor=none;" vertex="1" parent="1">
                    <mxGeometry x="445.5" y="490" width="69" height="72" as="geometry"/>
                </mxCell>
            </root>
        </mxGraphModel>
    </diagram>
</mxfile>